<svg xmlns="http://www.w3.org/2000/svg" viewBox="0 0 34 34"><title>Artboard 1</title><path d="M30.93,4.12,26.47,3V0h-1V2.78l-7-1.73L0,18.89,15.59,34,34,16.16ZM1.43,18.89,18.72,2.14l6.73,1.65V6.36A2.56,2.56,0,0,0,24.16,7a2.48,2.48,0,0,0,0,3.58,2.67,2.67,0,0,0,3.69,0,2.48,2.48,0,0,0,0-3.58,2.6,2.6,0,0,0-1.38-.67V4l3.63.89,2.78,10.93L15.59,32.61Zm25-11.56a1.52,1.52,0,0,1,.66.38,1.51,1.51,0,0,1,0,2.19,1.69,1.69,0,0,1-2.26,0,1.52,1.52,0,0,1,0-2.19,1.76,1.76,0,0,1,.58-.36v.8h1Z"/><path d="M3.65,18.9l11.9,11.53L27.32,19,15.43,7.49ZM15.55,29,5.08,18.9l10.35-10L25.89,19Z"/><path d="M15.34,14v1.21a2,2,0,0,0-1.83,2c0,1.19,1,1.74,2.08,2.15.91.36,1.29.73,1.29,1.28s-.54,1-1.32,1a3.1,3.1,0,0,1-1.67-.48l-.14-.09-.38,1,.08.06a3.75,3.75,0,0,0,1.8.53V23.9h1V22.66a2.18,2.18,0,0,0,1.92-2.1c0-1-.59-1.72-2-2.26-1.11-.44-1.43-.72-1.43-1.23s.31-.89,1.16-.89a2.8,2.8,0,0,1,1.47.39l.13.07.39-1-.09-.05a3.37,3.37,0,0,0-1.52-.42V14Z"/></svg>