<svg xmlns="http://www.w3.org/2000/svg" viewBox="0 0 39 35"><title>Artboard 1</title><path d="M19.61,4.61a11.11,11.11,0,1,0-.22,22.21h.11a11.11,11.11,0,0,0,.11-22.21Zm0,21.21H19.5a10,10,0,1,1,.08,0Z"/><path d="M19.5,8.6a7.12,7.12,0,0,0-5.71,2.83l.82.62a6.14,6.14,0,0,1,8.6-1.18,6,6,0,0,1,1.18,1.18l.82-.62A7.12,7.12,0,0,0,19.5,8.6Z"/><path d="M19.5,21.73a6.07,6.07,0,0,1-4.89-2.43l-.82.62a7.18,7.18,0,0,0,10.06,1.36,7.3,7.3,0,0,0,1.36-1.36l-.82-.62A6.07,6.07,0,0,1,19.5,21.73Z"/><path d="M33.25,23.33a3.1,3.1,0,0,0,.2-2.35l-.15-.46a2.13,2.13,0,0,1,.6-2.21l.36-.32a3.12,3.12,0,0,0,.22-4.41,2.28,2.28,0,0,0-.22-.22L33.9,13a2.13,2.13,0,0,1-.6-2.21l.15-.46a3.13,3.13,0,0,0-.27-2.52,3.21,3.21,0,0,0-2.07-1.5l-.47-.1A2.13,2.13,0,0,1,29,4.63l-.11-.46a3.14,3.14,0,0,0-4-2.31L24.39,2a2.19,2.19,0,0,1-2.22-.59L21.84,1A3.17,3.17,0,0,0,17.35.84a1.7,1.7,0,0,0-.19.19l-.32.36A2.2,2.2,0,0,1,14.61,2l-.46-.14A3.18,3.18,0,0,0,10.1,4.17l-.1.47A2.11,2.11,0,0,1,8.36,6.25l-.47.1a3.19,3.19,0,0,0-2.06,1.5,3.09,3.09,0,0,0-.28,2.52l.15.46A2.12,2.12,0,0,1,5.1,13l-.36.32a3.12,3.12,0,0,0-.22,4.41l.22.22.36.32a2.13,2.13,0,0,1,.6,2.21L5.55,21a3.1,3.1,0,0,0,.2,2.35L0,29l4.52,1.5L6,35l5.75-5.7a3.15,3.15,0,0,0,2.37.19l.46-.14a2.19,2.19,0,0,1,2.22.59l.33.36a3.2,3.2,0,0,0,4.51.18l.17-.18.33-.36a2.19,2.19,0,0,1,2.22-.59l.46.14a3.15,3.15,0,0,0,2.37-.19L33,35l1.51-4.48L39,29ZM6.48,33.11l-1.14-3.4L1.91,28.58l4.45-4.42A3.23,3.23,0,0,0,7.89,25l.47.1A2.09,2.09,0,0,1,10,26.72l.11.47a3,3,0,0,0,.84,1.5ZM27.9,27a2.1,2.1,0,0,1-2.74,1.55l-.46-.13a3.22,3.22,0,0,0-3.3.86l-.32.36a2.22,2.22,0,0,1-3.15,0h0l-.32-.36a3.19,3.19,0,0,0-2.34-1,2.82,2.82,0,0,0-1,.15l-.46.13A2.09,2.09,0,0,1,11.08,27l-.1-.47a3.13,3.13,0,0,0-2.42-2.4L8.11,24a2.18,2.18,0,0,1-1.39-1,2.11,2.11,0,0,1-.19-1.7l.15-.46a3.13,3.13,0,0,0-.88-3.27l-.36-.33a2.06,2.06,0,0,1-.7-1.56,2.12,2.12,0,0,1,.7-1.56l.36-.32a3.13,3.13,0,0,0,.88-3.27L6.53,10a2.11,2.11,0,0,1,.19-1.7,2.18,2.18,0,0,1,1.39-1l.47-.1A3.14,3.14,0,0,0,11,4.85l.1-.47A2.16,2.16,0,0,1,12.1,3a2.24,2.24,0,0,1,1.72-.18l.48.2a3.24,3.24,0,0,0,3.3-.87l.32-.36a2.22,2.22,0,0,1,3.14,0l0,0,.32.36A3.24,3.24,0,0,0,24.7,3l.46-.15A2.24,2.24,0,0,1,26.88,3a2.14,2.14,0,0,1,1,1.38l.1.47a3.15,3.15,0,0,0,2.42,2.4l.47.1a2.16,2.16,0,0,1,1.39,1,2.11,2.11,0,0,1,.19,1.7l-.15.46a3.13,3.13,0,0,0,.88,3.27l.36.33a2.08,2.08,0,0,1,.17,2.94,1.37,1.37,0,0,1-.17.17l-.36.33a3.13,3.13,0,0,0-.88,3.27l.15.46a2.11,2.11,0,0,1-.19,1.7,2.16,2.16,0,0,1-1.39,1l-.47.1A3.14,3.14,0,0,0,28,26.5Zm5.77,2.74-1.15,3.4-4.45-4.42a3.05,3.05,0,0,0,.83-1.51l.11-.46a2.13,2.13,0,0,1,1.63-1.62l.47-.1a3.3,3.3,0,0,0,1.53-.84l4.45,4.42Z"/><path d="M24.2,15.67,19.5,11l-4.7,4.65,4.7,4.66Zm-4.7-3.21,3.25,3.21L19.5,18.89l-3.24-3.22Z"/></svg>