<svg xmlns="http://www.w3.org/2000/svg" viewBox="0 0 260.9 57.9"><path d="M86.6 10.4v25.3h-4.1V10.4h-4.1L80 7.5h11.2l-1.6 2.8h-3zM114.1 23.9l-.5.2 5.6 11.2-3.5.9-7.1-14.7h.9c1.7 0 3-.4 3.8-1.1.7-.6 1-1.9 1-3.8v-.8c0-2.1-.4-3.6-1.2-4.4-.8-.8-2.1-1.2-4.1-1.2h-1v25.3h-4.1v-28h5.5c3.2 0 5.6.6 7.1 1.8 1.5 1.2 2.2 3.4 2.2 6.6v.4c0 1.4-.1 2.5-.4 3.5-.4 1.1-.8 1.9-1.4 2.5-.6.6-1.2 1-1.7 1.2-.6.2-.9.3-1.1.4zM132.9 7.5h4v28.1h-4V7.5zM162.5 34.7l-3.9-19-4.8 20.5-3.9-.5 6.8-26.6 3.5-2.3 2.7 15.4L165.7 9l3.6-2.3 5.8 28.9-3.8.5-3.7-20.5-5.1 19.1zM194.6 15.2l-5.3 21-4.3-.6L192.6 9l3.7-2.4 7.6 29-3.9.6z"/><path d="M194.6 34.9l-4-3.5h7.9zM226 23.9l-.5.2 5.6 11.2-3.5.9-7.1-14.7h.9c1.7 0 3-.4 3.8-1.1.7-.6 1-1.9 1-3.8v-.8c0-2.1-.4-3.6-1.2-4.4-.8-.8-2.1-1.2-4.1-1.2h-1.1v25.3h-4v-28h5.5c3.2 0 5.6.6 7.1 1.8 1.5 1.2 2.2 3.4 2.2 6.6v.4c0 1.4-.1 2.5-.4 3.5-.4 1.1-.8 1.9-1.4 2.5-.6.6-1.2 1-1.7 1.2-.6.2-1 .3-1.1.4zM243 35.6V7.5h4.1v28.1H243zm14.5 1l-10-13.5L257 6.8l3.6 1.1-9.1 15.1 9.4 12.4-3.4 1.2zM29 0C13 0 0 13 0 29s13 29 29 29 29-13 29-29C57.9 13 45 0 29 0zm0 55.7c-14.8 0-26.7-12-26.7-26.7 0-14.8 12-26.7 26.7-26.7 14.8 0 26.7 12 26.7 26.7S43.7 55.7 29 55.7z"/><path d="M29 4.7C15.5 4.7 4.7 15.5 4.7 29c0 13.4 10.9 24.3 24.3 24.3S53.3 42.4 53.3 29C53.3 15.5 42.4 4.7 29 4.7zm-10.3 6.9l14 8.1-14 8.1V11.6zm0 34.8V30.2l14 8.1-14 8.1zm16.2-9.3V20.9l14 8.1-14 8.1zM123.8 50.4c0 1.8-.6 3.3-1.7 4.3-1.1.9-2.6 1.4-4.4 1.4h-2.5V44.8h2.7c1.8 0 3.3.5 4.3 1.4 1.1 1 1.6 2.4 1.6 4.2zm-1.4 0c0-1.4-.4-2.5-1.3-3.2-.8-.7-2-1-3.5-1h-.9v8.6h1.1c1.3 0 2.4-.4 3.3-1.1.8-.8 1.3-1.9 1.3-3.3zM136.5 56H135V44.8h1.5V56zM158.8 50.9c0 1.6-.5 2.8-1.5 3.9-1 1-2.3 1.5-3.9 1.5s-3-.6-4.1-1.7c-1.1-1.2-1.7-2.5-1.7-4.1 0-1.6.6-3 1.7-4.2 1.2-1.1 2.6-1.7 4.2-1.7 1.8 0 3.4.8 4.7 2.3l-1.2 1c-.4-.5-.9-1-1.6-1.3-.7-.4-1.3-.6-2-.6-1.3 0-2.4.4-3.2 1.3-.9.8-1.3 1.9-1.3 3.2 0 1.2.4 2.3 1.3 3.2.9.9 1.9 1.3 3.2 1.3 1 0 1.8-.3 2.5-.9.7-.6 1.1-1.3 1.2-2.2h-2.6v-1.4h4.4v.4zM171.3 56h-1.5V44.8h1.5V56zM188.8 46.1h-2.7V56h-1.5v-9.9H182v-1.3h6.8v1.3zM208.9 56h-1.7l-1.2-2.9h-4.6l-1.2 2.9h-1.7l5.2-11.7 5.2 11.7zm-3.5-4.1l-1.8-4.1-1.8 4.1h3.6zM224.4 56h-4.9V44.8h1.5v9.9h3.4V56z"/></svg>